<?xml version="1.0" encoding="UTF-8"?>
<svg id="Ebene_1" xmlns="http://www.w3.org/2000/svg" version="1.1" xmlns:serif="http://www.serif.com/" viewBox="0 0 456 456">
  <!-- Generator: Adobe Illustrator 29.8.4, SVG Export Plug-In . SVG Version: 2.1.1 Build 6)  -->
  <defs>
    <style>
      .st0 {
        fill: #93bfb7;
      }
    </style>
  </defs>
  <path class="st0" d="M213.43,220.46c-1.16-4.54-2.31-9.12-3.45-13.72-1.14-4.6-2.26-9.18-3.36-13.73,5.97-8.21,11.52-17.02,15.93-26.1,5.61-11.39,8.67-23.8,9.47-36.38,1.03-14.3-2.27-29.38-11.36-40.96-1.06-1.38-2.23-2.72-3.41-4.02-.06-.07-.13-.15-.21-.22-3.43-3.48-9.19-2.98-12.07.97-.35.48-.58.8-.58.8-8.75,12.62-14.84,27.21-16.25,42.51-.68,8.06.58,16.05,2.4,23.75,2.07,7.65,4.13,15.3,6.18,22.96-7.88,8.46-15.98,16.86-23.01,26.13-15.1,19.19-26.93,42.29-18.41,67.14,6.29,19.04,21.66,34.85,41.72,38.67,10.52,2.06,21.22.83,31.35-2.28.15-.05.3-.09.45-.14,2.22,9.15,4.45,18.22,6.67,27.03,1.28,4.55,1.59,9.42.52,14.04-1.89,8.57-7.64,14.65-16,17.26-8.46,2.73-18.93,2.84-25.95-2.87.56-.05,1.13-.13,1.71-.24,7.42-1.43,11.39-7.73,10.23-13.73-1.15-5.99-7.16-11.04-14.6-9.68-6.82,1.24-11.59,8.24-11.16,15.14.81,13.06,15.87,19.97,25.74,20.18,5.38.16,11.87-.65,16.89-2.31,12.57-4.17,20.17-14.96,20.81-28.04.18-3.74-.28-6.52-1.35-11.47-1.49-6.9-3.74-16.32-7.1-27.66-7.26-27.68-14.53-55.36-21.79-83.04ZM198.76,127.71c2.94-8.34,8.08-15.98,14.99-21.48,1.01.68,1.95,1.49,2.79,2.38,4.45,4.67,6.5,11.42,6.29,17.82-.15,11.74-4.26,23.45-11.29,32.78-1.22,1.65-2.5,3.26-3.81,4.84-2.01,2.38-4.09,4.73-6.2,7.06-3.09-14.06-7.9-29.43-2.77-43.4ZM213.14,240.11c1.27,5.24,2.52,10.49,3.74,15.75,3.28,13.81,6.72,28.28,10.16,42.57-1.94.6-3.93,1.24-6.06,1.68-25.41,5.85-46.38-8.14-51.76-33.42-5.46-24.88,14.89-44.98,29.28-63.12,1.37-1.69,2.73-3.41,4.08-5.17,2.04,7.8,4.06,15.6,6.03,23.41M233.04,295.17c-4.91-18.66-9.91-37.33-14.79-56.02"/>
  <path class="st0" d="M227.04,298.43l1.78,7.42,43.94-13.54c12.96-3.66,21.93-9.65,26.92-17.98,4.04-6.86,4.92-14.34,2.63-22.44-2.17-7.68-6.45-13.21-12.85-16.61-4.47-2.4-11.38-3.56-20.74-3.49,7.38-4.66,12.1-9.46,14.15-14.42,2.05-4.95,2.34-10.02.88-15.21-1.39-4.92-3.96-9.22-7.72-12.87-3.75-3.66-8.12-5.97-13.11-6.93-4.99-.96-12.72.03-23.21,2.99l-25.2,7.11,1.26,4.56,15.78-2.85s11.54-2.49,14.96-1.74c3.42.75,6.36,2.42,8.81,5.02,2.46,2.59,4.36,6.27,5.7,11.04,1.35,4.77,1.64,8.91.89,12.44-.75,3.53-2.41,6.57-4.97,9.12-2.56,2.55-7.04,4.73-13.42,6.53l1.75,6.2c6.87-2,12.26-2.69,16.18-2.08,3.91.61,7.42,2.64,10.53,6.07,3.11,3.44,5.37,7.67,6.79,12.7,1.24,4.4,1.32,7.67.71,11.7-.61,4.03-2.86,6.34-5.37,9.08-2.51,2.74-8.77,5.56-8.77,5.56"/>
</svg>