<?xml version="1.0" encoding="UTF-8"?>
<svg id="Ebene_1" xmlns="http://www.w3.org/2000/svg" version="1.1" viewBox="0 0 1293 1293.29">
  <!-- Generator: Adobe Illustrator 29.8.4, SVG Export Plug-In . SVG Version: 2.1.1 Build 6)  -->
  <defs>
    <style>
      .st0 {
        fill: #93bfb7;
      }
    </style>
  </defs>
  <path class="st0" d="M-85.06,511.14h1463.12c47.85,0,86.7,38.85,86.7,86.7v97.6c0,47.85-38.85,86.7-86.7,86.7H-85.06c-47.85,0-86.7-38.85-86.7-86.7v-97.6c0-47.85,38.85-86.7,86.7-86.7Z" transform="translate(-267.89 646.54) rotate(-45)"/>
  <path class="st0" d="M597.7-171.61h97.6c47.85,0,86.7,38.85,86.7,86.7v1463.12c0,47.85-38.85,86.7-86.7,86.7h-97.6c-47.85,0-86.7-38.85-86.7-86.7V-84.91c0-47.85,38.85-86.7,86.7-86.7Z" transform="translate(-267.9 646.55) rotate(-45)"/>
</svg>