<?xml version="1.0" encoding="UTF-8"?>
<svg id="Ebene_1" xmlns="http://www.w3.org/2000/svg" version="1.1" viewBox="0 0 46.44 60.44">
  <!-- Generator: Adobe Illustrator 29.8.4, SVG Export Plug-In . SVG Version: 2.1.1 Build 6)  -->
  <defs>
    <style>
      .st0 {
        fill: none;
        stroke: #fff;
        stroke-linecap: round;
        stroke-linejoin: round;
        stroke-width: .7px;
      }

      .st1 {
        fill: #93bfb7;
      }
    </style>
  </defs>
  <path id="Pfad_9" class="st1" d="M2.52,2.89h41.4c1.13,0,2.05.91,2.05,2.04h0v2.36c0,1.13-.92,2.04-2.05,2.04H2.52c-1.13,0-2.04-.92-2.04-2.04v-2.36c0-1.13.92-2.04,2.04-2.04"/>
  <path class="st1" d="M5.81,10.89v45.46c0,.69.62,1.26,1.39,1.26h32.05c.76,0,1.38-.56,1.38-1.26V10.89s-34.82,0-34.82,0ZM14.77,52.05c.02.95-.72,1.73-1.65,1.75s-1.71-.72-1.73-1.67c0-.03,0-.06,0-.08V15.88c0-.95.76-1.71,1.69-1.71,0,0,0,0,0,0h0s0,0,0,0c.93,0,1.69.77,1.69,1.71v36.17ZM24.91,52.05c.02.95-.72,1.73-1.65,1.75s-1.71-.72-1.73-1.67c0-.03,0-.06,0-.08V15.88c0-.95.76-1.71,1.69-1.71,0,0,0,0,0,0h0s0,0,0,0c.93,0,1.69.77,1.69,1.71v36.17ZM35.06,52.05c.02.95-.72,1.73-1.65,1.75-.93.02-1.71-.72-1.73-1.67,0-.03,0-.06,0-.08V15.88c0-.95.76-1.71,1.69-1.71,0,0,0,0,0,0h0s0,0,0,0c.93,0,1.69.77,1.69,1.71v36.17Z"/>
  <path class="st0" d="M45.96,7.83"/>
</svg>