<?xml version="1.0" encoding="UTF-8"?>
<svg id="Ebene_1" data-name="Ebene 1" xmlns="http://www.w3.org/2000/svg" viewBox="0 0 1000 968.57">
  <defs>
    <style>
      .cls-1 {
        fill: #93bfb7;
      }
    </style>
  </defs>
  <polygon class="cls-1" points="73.09 741.19 617.17 221.47 771.46 379.83 227.38 899.54 73.09 741.19"/>
  <path class="cls-1" d="M868.9,282.38c-4.06-4.06-154.29-158.35-154.29-158.35,0,0,109.63-105.57,117.75-113.69,20.3-16.24,48.72-12.18,69.03,4.06,8.12,0,77.15,73.09,85.27,81.21,20.3,20.3,16.24,56.84-4.06,77.15-16.24,16.24-101.51,97.45-113.69,109.63Z"/>
  <rect class="cls-1" x="719.13" y="139.28" width="48.72" height="223.31" transform="translate(33.4 584.88) rotate(-43.84)"/>
  <path class="cls-1" d="M48.72,769.62S0,968.57,0,968.57c0,0,178.65-36.54,203.01-40.6l-154.29-158.35ZM58.38,815.25l98.8,101.4c-15.6,2.6-130,26-130,26l31.2-127.4Z"/>
</svg>