<?xml version="1.0" encoding="UTF-8"?>
<svg id="Ebene_1" data-name="Ebene 1" xmlns="http://www.w3.org/2000/svg" viewBox="0 0 1293 1293.29">
  <defs>
    <style>
      .cls-1 {
        fill: #e4f2e7;
      }
    </style>
  </defs>
  <path class="cls-1" d="M1265.53,537.96l-111.6-64.43c-10.62-6.13-18.78-15.67-23.47-27-.08-.19-.16-.38-.23-.56-4.71-11.33-5.69-23.87-2.51-35.72l33.35-124.47c5.08-18.96-.34-39.18-14.22-53.06l-86.42-86.42c-13.88-13.88-34.1-19.3-53.06-14.22l-124.47,33.35c-11.85,3.18-24.39,2.19-35.72-2.51-.15-.06-.3-.13-.46-.19-11.32-4.69-20.87-12.85-26.99-23.46l-64.54-111.79C745.37,10.47,727.24,0,707.61,0h-122.22c-19.63,0-37.76,10.47-47.57,27.47l-64.54,111.79c-6.13,10.62-15.67,18.78-27,23.47-.12.05-.23.1-.35.14-11.33,4.7-23.86,5.69-35.71,2.51l-124.69-33.41c-18.96-5.08-39.18.34-53.06,14.22l-86.42,86.42c-13.88,13.88-19.3,34.1-14.22,53.06l33.41,124.69c3.18,11.85,2.19,24.38-2.51,35.71-.06.15-.13.3-.19.46-4.69,11.33-12.85,20.88-23.47,27.01l-111.6,64.43C10.47,547.78,0,565.91,0,585.54v122.22c0,19.63,10.47,37.76,27.47,47.57l111.6,64.43c10.62,6.13,18.78,15.67,23.47,27,.08.19.16.38.23.56,4.71,11.33,5.69,23.87,2.51,35.72l-33.35,124.47c-5.08,18.96.34,39.18,14.22,53.06l86.42,86.42c13.88,13.88,34.1,19.3,53.06,14.22l124.47-33.35c11.85-3.18,24.39-2.19,35.72,2.51.15.06.3.13.46.19,11.32,4.69,20.87,12.85,26.99,23.46l64.54,111.79c9.81,17,27.95,27.47,47.57,27.47h122.22c19.63,0,37.76-10.47,47.57-27.47l64.54-111.79c6.13-10.62,15.67-18.78,27-23.47.12-.05.23-.1.35-.14,11.33-4.7,23.86-5.69,35.71-2.51l124.69,33.41c18.96,5.08,39.18-.34,53.06-14.22l86.42-86.42c13.88-13.88,19.3-34.1,14.22-53.06l-33.41-124.69c-3.18-11.85-2.19-24.38,2.51-35.71.06-.15.13-.3.19-.46,4.69-11.33,12.85-20.88,23.47-27.01l111.6-64.43c17-9.81,27.47-27.95,27.47-47.57v-122.22c0-19.63-10.47-37.76-27.47-47.57ZM646.5,985.52c-187.15,0-338.87-151.72-338.87-338.87s151.72-338.87,338.87-338.87,338.87,151.72,338.87,338.87-151.72,338.87-338.87,338.87Z"/>
  <circle class="cls-1" cx="646.5" cy="646.65" r="205.72"/>
</svg>