<?xml version="1.0" encoding="UTF-8"?>
<svg id="Ebene_1" data-name="Ebene 1" xmlns="http://www.w3.org/2000/svg" viewBox="0 0 1116.22 1320.15">
  <defs>
    <style>
      .cls-1 {
        fill: #e4f2e7;
      }

      .cls-2 {
        fill: #93bfb7;
      }
    </style>
  </defs>
  <path class="cls-2" d="M801.8,0H107.33C48.05,0,0,48.05,0,107.33v1105.49c0,59.28,48.05,107.33,107.33,107.33h901.57c59.28,0,107.33-48.05,107.33-107.33V287.63c0-34-14.79-66.33-40.51-88.56L878.33,28.49c-21.26-18.38-48.43-28.49-76.54-28.49Z"/>
  <g>
    <path class="cls-1" d="M325.9,634.61c-9.51-.48-18.89.14-28.11,1.66-5.97-30-11.79-60.01-17.35-90.04,20.72-25.57,40.21-53.11,56.01-81.75,20.1-35.9,32.13-75.55,36.88-116.14,5.79-46.12-2.33-95.5-29.76-134.51-3.18-4.64-6.75-9.19-10.34-13.6-.19-.24-.41-.49-.64-.76-10.51-11.85-29.24-11.22-39.23,1.07-1.22,1.51-2.02,2.49-2.02,2.49-30.47,39.35-52.69,85.54-59.87,134.84-3.56,25.97-.85,52.06,3.73,77.3,5.39,25.12,10.76,50.24,16.09,75.37-26.95,26.05-54.6,51.85-78.94,80.66-52.15,59.54-94.39,132.29-71.06,214.19,17.12,62.69,64.17,116.51,128.43,132.29,33.7,8.46,68.55,6.32,101.86-2.02.49-.12.98-.24,1.47-.37,5.62,30,11.29,59.73,16.96,88.64,3.38,14.95,3.53,30.75-.7,45.53-7.59,27.41-27.24,46.11-54.75,53.14-27.87,7.39-61.76,5.96-83.52-13.72,1.84-.07,3.69-.21,5.56-.47,24.26-3.35,41.73-21.96,39.03-41.56-2.71-19.6-25.16-37.86-49.46-34.75-22.29,2.85-38.61,24.47-38.4,46.88.4,42.42,47.96,67.36,79.87,69.71,17.38,1.45,38.54-.06,55.06-4.61,41.39-11.36,67.85-44.97,72.16-87.2,1.29-12.48.24-25.13-2.43-37.35-5.92-30.24-12.04-60.49-18.26-90.75,55.32-20.53,96.69-65.01,100.33-127.81,1.03-20.13-1.62-40.69-9.25-59.32-19.34-48.21-66.83-84.85-119.33-87.03ZM266.14,333.53c10.93-26.49,28.89-50.35,52.19-66.99,3.15,2.38,6.05,5.16,8.62,8.18,13.6,15.88,19.07,38.08,17.32,58.77-2.5,37.97-17.79,75.17-42.15,104.18-4.23,5.14-8.66,10.12-13.16,15.03-6.92,7.37-14.03,14.61-21.26,21.78-7.61-46.04-20.54-96.62-1.57-140.95ZM192.39,791.88c6.41,23.1,22.65,45.13,45.41,54.18,10.53,4.39,22.24,6.04,33.53,4.32,1.64-.3,3.25-.63,4.85-1.07.53-.17,1.06-.34,1.58-.53-.49-.26-.95-.53-1.42-.82-3.1-1.83-6.19-3.86-9.06-5.97-17.38-12.75-28.53-28.76-33.06-49.81-9.85-41.6,10.49-79.02,52.38-90.6,2.28-.67,4.59-1.25,6.9-1.77,3.21,17.19,6.36,34.39,9.4,51.61,8.25,45.25,16.82,92.34,25.52,139.17-6.24,2.09-12.84,3.69-19.81,4.77-83.26,14.59-148.75-34.28-161.83-117.03-13.41-81.46,55.87-143.06,105.57-199.33,4.71-5.23,9.43-10.58,14.1-16.03,5.29,25.58,10.47,51.18,15.52,76.81-5.2,1.46-10.34,3.18-15.39,5.17-60.36,23.22-92.69,84.37-74.19,146.92ZM393.7,799.85c-1.16,36.55-17.61,65.14-45.2,81.6-12.7-61.25-25.71-122.54-38.3-183.87,9.3-.39,18.59.7,27.4,3.78,21.29,7.24,39.28,24.44,48.35,44.9,1.62,3.71,2.85,7.31,3.72,11.13,3.04,13.98,4.57,28.26,4.02,42.47Z"/>
    <g>
      <rect class="cls-1" x="529.91" y="338.98" width="491.63" height="42.93"/>
      <rect class="cls-1" x="529.91" y="488.8" width="491.63" height="42.93"/>
      <rect class="cls-1" x="529.91" y="638.61" width="491.63" height="42.93"/>
      <rect class="cls-1" x="529.91" y="788.42" width="491.63" height="42.93"/>
      <rect class="cls-1" x="529.91" y="938.24" width="491.63" height="42.93"/>
    </g>
    <g>
      <path class="cls-1" d="M670.81,869.03c-40.58,0-73.59-25.47-73.59-56.79s33.01-56.79,73.59-56.79c8.86,0,17.63,1.23,25.87,3.6v-235.8c0-3.64.94-7.2,2.74-10.37,2.35-6.47,7.55-11.59,14.09-13.79l210.36-70.8c2.32-.78,4.74-1.18,7.19-1.18,1.55,0,3.1.16,4.62.47,10.75,1.59,18.52,9.29,18.52,18.41v291.21c0,.39-.02.75-.04,1.07.04.82.07,1.64.07,2.45,0,31.31-33.01,56.79-73.59,56.79s-73.59-25.47-73.59-56.79,33.01-56.79,73.59-56.79c9.84,0,19.5,1.5,28.46,4.39v-206.92l-164.37,55.32v272.96c0,1.24-.11,2.5-.34,3.75-.4,15.21-8.39,29.32-22.55,39.81-13.74,10.18-31.86,15.78-51.02,15.78Z"/>
      <path class="cls-2" d="M931.06,434.62c1.12,0,2.23.13,3.31.36,7.01.95,12.33,5.52,12.33,11.02v291.21c0,.32-.03.64-.06.95.06.85.09,1.71.09,2.57,0,27.22-29.59,49.29-66.09,49.29s-66.09-22.07-66.09-49.29,29.59-49.29,66.09-49.29c13.27,0,25.61,2.93,35.96,7.94v-228.41l-179.37,60.37v278.35c0,1.01-.12,1.99-.33,2.94-.28,27.04-29.75,48.89-66.08,48.89s-66.09-22.07-66.09-49.29,29.59-49.29,66.09-49.29c12.17,0,23.57,2.47,33.37,6.75v-246.45c0-2.65.77-5.12,2.08-7.21,1.41-4.47,4.85-8.23,9.63-9.84l210.36-70.8c1.59-.54,3.21-.79,4.8-.79M931.06,419.62c-3.26,0-6.49.53-9.58,1.57l-210.36,70.8c-8.49,2.86-15.3,9.42-18.52,17.75-2.23,4.16-3.41,8.79-3.41,13.51v226.35c-6-1.09-12.17-1.65-18.37-1.65-20.86,0-40.65,6.18-55.7,17.41-16.14,12.03-25.39,29.12-25.39,46.88s9.25,34.84,25.39,46.88c15.06,11.23,34.84,17.41,55.7,17.41s40.46-6.13,55.48-17.25c15.89-11.77,24.93-27.73,25.56-45.08.24-1.5.36-3,.36-4.5v-267.57l149.37-50.27v186.75c-6.79-1.42-13.84-2.16-20.96-2.16-20.86,0-40.64,6.18-55.7,17.41-16.14,12.03-25.39,29.12-25.39,46.88s9.25,34.84,25.39,46.88c15.06,11.23,34.84,17.41,55.7,17.41s40.64-6.18,55.7-17.41c16.14-12.03,25.39-29.12,25.39-46.88,0-.79-.02-1.6-.06-2.4.02-.35.03-.72.03-1.12v-291.21c0-12.82-10.36-23.59-24.72-25.8-1.95-.39-3.94-.59-5.93-.59h0Z"/>
    </g>
  </g>
</svg>